<?xml version="1.0" encoding="utf-8"?>
<!-- Generator: Adobe Illustrator 16.0.0, SVG Export Plug-In . SVG Version: 6.00 Build 0)  -->
<!DOCTYPE svg PUBLIC "-//W3C//DTD SVG 1.1//EN" "http://www.w3.org/Graphics/SVG/1.1/DTD/svg11.dtd">
<svg version="1.1" id="圖層_1" xmlns="http://www.w3.org/2000/svg" xmlns:xlink="http://www.w3.org/1999/xlink" x="0px" y="0px"
	 width="512px" height="512px" viewBox="0 0 512 512" enable-background="new 0 0 512 512" xml:space="preserve">
<polygon fill="#FFFFFF" stroke="#000000" stroke-width="27" stroke-linejoin="round" stroke-miterlimit="10" points="455.5,370.307 
	254.593,476.02 55.5,370.307 55.5,79.5 455.5,79.5 "/>
<g>
	<path d="M198.661,146.186c34.172-18.352,71.082-22.041,110.742-11.074c9.279,2.955,17.719,6.645,25.312,11.074
		c9.699,6.119,18.035,13.08,24.996,20.883c8.646,9.072,12.656,17.719,12.023,25.945c-0.846,6.752-4.326,11.074-10.441,12.973
		c-7.594,2.955-16.033,0-25.312-8.859c-19.83-19.193-36.703-30.375-50.625-33.539c-20.676-4.639-40.292-2.531-58.852,6.328
		c-18.777,9.916-32.59,25.42-41.449,46.512c-3.797,9.283-6.224,19.934-7.277,31.957v17.082c1.053,19.189,6.219,36.062,15.504,50.617
		c9.492,14.135,20.987,23.523,34.488,28.16c18.984,7.387,38.809,8.336,59.484,2.848c15.82-3.371,33.223-14.871,52.207-34.488
		c8.859-9.066,17.293-10.861,25.312-5.379c7.801,5.908,9.699,13.715,5.695,23.414c-3.377,7.594-11.816,16.35-25.312,26.262
		c-16.879,12.865-33.752,20.459-50.625,22.781c-6.961,1.475-14.664,2.424-23.098,2.848h-17.402
		c-16.878-0.424-33.855-4.113-50.941-11.074c-18.352-7.807-33.751-21.406-46.195-40.816c-10.337-18.559-16.137-39.867-17.402-63.907
		v-18.663c0.84-16.453,5.062-33.326,12.656-50.625C161.642,176.773,177.146,159.688,198.661,146.186z"/>
</g>
</svg>
